<?xml version="1.0" encoding="UTF-8" standalone="no"?>
<!DOCTYPE svg PUBLIC "-//W3C//DTD SVG 1.1//EN" "http://www.w3.org/Graphics/SVG/1.1/DTD/svg11.dtd">
<svg width="100%" height="100%" viewBox="0 0 400 400" version="1.1" xmlns="http://www.w3.org/2000/svg" xmlns:xlink="http://www.w3.org/1999/xlink" xml:space="preserve" xmlns:serif="http://www.serif.com/" style="fill-rule:evenodd;clip-rule:evenodd;stroke-linecap:round;stroke-linejoin:round;stroke-miterlimit:1.5;">
    <g id="love">
        <g>
            <g transform="matrix(-1,0,0,1,386.403,-1.62642)">
                <path d="M181.329,156.668C181.329,156.668 162.137,150.163 154.98,149.512C149.368,149.002 138.391,152.765 138.391,152.765C138.391,152.765 149.348,144.387 155.631,144.958C162.787,145.609 181.329,156.668 181.329,156.668Z" style="stroke:black;stroke-width:0.87px;"/>
            </g>
            <g transform="matrix(1,0,0,1,2.84624,-4.87928)">
                <ellipse cx="225.465" cy="182.903" rx="22.973" ry="19.924" style="fill:white;stroke:black;stroke-width:2.33px;"/>
            </g>
        </g>
        <path d="M230.315,197.693C233.885,196.56 241.167,193.557 243.916,189.703C246.664,185.85 248.109,178.908 246.806,174.573C245.502,170.238 240.742,165.251 236.095,163.693C231.449,162.134 223.034,162.899 218.925,165.223C214.817,167.546 211.955,173.496 211.445,177.633C210.935,181.77 213.712,187.436 215.865,190.043C217.796,192.38 221.37,193.738 224.365,193.273C228.02,192.707 235.274,189.986 237.795,186.643C240.317,183.3 241.762,176.245 239.495,173.213C237.229,170.181 227.765,167.688 224.195,168.453C220.625,169.218 218.302,174.828 218.075,177.803C217.848,180.778 220.399,185.056 222.835,186.303C225.272,187.55 230.684,186.87 232.695,185.283C234.707,183.696 236.095,178.54 234.905,176.783C233.715,175.026 227.199,174.006 225.555,174.743C223.912,175.48 224.479,179.956 225.045,181.203C225.603,182.429 228.615,182.563 228.955,182.223C229.295,181.883 227.255,180.041 227.085,179.163C226.935,178.388 227.16,177.103 227.935,176.953C228.814,176.783 231.789,177.18 232.355,178.143C232.922,179.106 232.537,181.727 231.335,182.733C230.117,183.753 226.689,185 225.045,184.263C223.402,183.526 221.419,180.325 221.475,178.313C221.532,176.301 223,172.608 225.385,172.193C227.992,171.74 235.359,173.496 237.115,175.593C238.872,177.69 237.936,182.432 235.925,184.773C233.857,187.181 225.017,191.006 221.475,190.043C217.933,189.08 215.327,182.79 214.675,178.993C214.023,175.196 217.338,169.189 220.795,167.263C224.252,165.336 231.675,166.129 235.415,167.433C238.859,168.633 242.216,171.598 243.236,175.083C244.256,178.568 244.635,185.142 241.536,188.343C238.079,191.913 224.365,194.945 222.495,196.503C220.625,198.062 227.802,198.491 230.315,197.693Z"/>
        <g>
            <path d="M181.329,156.668C181.329,156.668 162.137,150.163 154.98,149.512C149.368,149.002 138.391,152.765 138.391,152.765C138.391,152.765 149.348,144.387 155.631,144.958C162.787,145.609 181.329,156.668 181.329,156.668Z" style="stroke:black;stroke-width:0.87px;"/>
            <ellipse cx="160.205" cy="182.09" rx="24.803" ry="20.33" style="fill:white;stroke:black;stroke-width:2.33px;"/>
            <path d="M167.617,201.148C153.06,200.175 139.263,193.151 140.602,184.852C141.564,178.885 148.92,169.687 153.386,167.035C157.6,164.532 165.399,165.721 169.57,168.123C173.741,170.526 179.475,177.711 179.906,181.859C180.337,186.008 174.521,194.906 169.994,194.986C164.872,195.077 151.705,189.399 149.257,185.885C146.809,182.372 154.156,173.201 157.466,171.931C160.775,170.662 166.397,172.725 169.026,174.787C171.655,176.85 172.925,182.267 173.242,184.308C173.425,185.483 170.916,188.351 169.733,188.224C166.99,187.93 158.255,185.155 156.351,183.41C154.735,181.929 157.874,177.258 159.506,176.555C161.138,175.853 165.581,177.349 166.578,178.323C167.575,179.298 166.397,181.882 165.49,182.403C164.583,182.925 161.432,181.723 161.138,181.451C160.843,181.179 163.178,181.111 163.722,180.771C164.152,180.503 164.818,179.701 164.402,179.411C163.881,179.049 161.432,178.21 160.594,178.595C159.755,178.981 158.445,181.093 159.37,181.723C160.866,182.743 167.643,184.489 169.57,184.716C170.273,184.798 171.112,183.768 170.93,183.083C170.567,181.723 169.436,177.953 167.394,176.555C165.241,175.082 160.503,173.337 158.01,174.243C155.516,175.15 149.955,181.818 151.998,184.259C154.22,186.911 166.607,191.658 170.642,191.635C173.924,191.617 177.027,185.056 176.642,181.859C176.257,178.663 172.449,173.11 169.026,170.979C165.603,168.849 158.552,168.811 154.474,170.299C149.619,172.071 145.492,179 144.818,184.716C144.061,191.128 152.727,194.574 163.653,196.56C167.156,197.197 170.892,197.684 174.624,198.071"/>
        </g>
    </g>
</svg>
