<?xml version="1.0" encoding="UTF-8" standalone="no"?>
<!DOCTYPE svg PUBLIC "-//W3C//DTD SVG 1.1//EN" "http://www.w3.org/Graphics/SVG/1.1/DTD/svg11.dtd">
<svg width="100%" height="100%" viewBox="0 0 400 400" version="1.1" xmlns="http://www.w3.org/2000/svg" xmlns:xlink="http://www.w3.org/1999/xlink" xml:space="preserve" xmlns:serif="http://www.serif.com/" style="fill-rule:evenodd;clip-rule:evenodd;stroke-linecap:round;stroke-linejoin:round;stroke-miterlimit:1.5;">
    <g>
        <path d="M143.599,190.514C148.246,191.081 162.696,199.383 170.46,200.374C177.107,201.224 191.474,195.331 193.401,195.246C194.281,195.207 190.018,196.944 188.358,197.604C186.386,198.388 183.195,200.766 181.672,201.257C178.243,202.362 174.505,204.418 170.306,203.617C164.637,202.535 151.641,195.166 146.071,193.167C145.516,192.968 145.028,192.817 144.619,192.724C143.087,192.377 142.749,197.343 142.579,196.974C142.409,196.606 141.435,190.25 143.599,190.514Z"/>
        <path d="M149.14,188.355C148.614,185.285 147.774,181.134 148.019,176.404C148.235,172.251 150.059,167.762 152.27,164.674C154.459,161.614 158.078,159.376 161.28,157.874C164.429,156.397 168.032,155.202 171.48,155.664C175.078,156.145 179.819,157.936 182.87,160.764C185.958,163.626 188.328,166.503 189.575,169.875C190.519,172.428 190.674,178.291 190.35,180.994C189.953,184.309 188.901,189.689 187.63,192.724C186.583,195.225 185.013,197.76 182.723,199.209C180.152,200.835 172.208,202.482 172.208,202.482C166.095,201.063 159.171,198.158 151.665,194.186C151.665,194.186 149.242,188.949 149.14,188.355Z" style="fill:rgb(255,252,68);stroke:black;stroke-width:2.76px;"/>
        <g transform="matrix(1,0,0,1,3.45317,-4.78132)">
            <ellipse cx="167.858" cy="171.128" rx="6.226" ry="7.523" style="fill:rgb(3,3,0);stroke:black;stroke-width:2.76px;"/>
        </g>
    </g>
    <g transform="matrix(1,0,0,1,54.9934,0)">
        <path d="M143.599,190.514C148.246,191.081 162.696,199.383 170.46,200.374C177.107,201.224 191.474,195.331 193.401,195.246C194.281,195.207 190.018,196.944 188.358,197.604C186.386,198.388 183.195,200.766 181.672,201.257C178.243,202.362 174.505,204.418 170.306,203.617C164.637,202.535 151.641,195.166 146.071,193.167C145.516,192.968 145.028,192.817 144.619,192.724C143.087,192.377 142.749,197.343 142.579,196.974C142.409,196.606 141.435,190.25 143.599,190.514Z"/>
        <path d="M149.14,188.355C148.614,185.285 147.774,181.134 148.019,176.404C148.235,172.251 150.059,167.762 152.27,164.674C154.459,161.614 158.078,159.376 161.28,157.874C164.429,156.397 168.032,155.202 171.48,155.664C175.078,156.145 179.819,157.936 182.87,160.764C185.958,163.626 188.328,166.503 189.575,169.875C190.519,172.428 190.674,178.291 190.35,180.994C189.953,184.309 188.901,189.689 187.63,192.724C186.583,195.225 185.013,197.76 182.723,199.209C180.152,200.835 172.208,202.482 172.208,202.482C166.095,201.063 159.171,198.158 151.665,194.186C151.665,194.186 149.242,188.949 149.14,188.355Z" style="fill:rgb(255,252,68);stroke:black;stroke-width:2.76px;"/>
        <g transform="matrix(1,0,0,1,1.55642,-4.15045)">
            <ellipse cx="167.858" cy="171.128" rx="6.226" ry="7.523" style="fill:rgb(3,3,0);stroke:black;stroke-width:2.76px;"/>
        </g>
    </g>
</svg>
