<?xml version="1.0" encoding="UTF-8" standalone="no"?>
<!DOCTYPE svg PUBLIC "-//W3C//DTD SVG 1.1//EN" "http://www.w3.org/Graphics/SVG/1.1/DTD/svg11.dtd">
<svg width="100%" height="100%" viewBox="0 0 400 400" version="1.1" xmlns="http://www.w3.org/2000/svg" xmlns:xlink="http://www.w3.org/1999/xlink" xml:space="preserve" xmlns:serif="http://www.serif.com/" style="fill-rule:evenodd;clip-rule:evenodd;stroke-linecap:round;stroke-linejoin:round;stroke-miterlimit:1.5;">
    <g>
        <g transform="matrix(-1,0,0,1,395.136,-0.415045)">
            <path d="M142.782,149.617C145.036,149.923 170.383,142.008 177.646,141.316C180.849,141.011 184.287,145.259 186.362,145.466C187.932,145.623 191.148,143.738 190.097,142.561C188.368,140.624 180.315,134.359 175.986,133.845C171.657,133.331 168.078,137.601 164.125,139.479C158.591,142.108 140.529,149.311 142.782,149.617Z"/>
        </g>
        <path d="M209.656,162.926C209.656,162.926 205.805,171.741 206.04,176.378C206.193,179.396 206.971,186.716 210.513,191.323C215.289,197.537 224.471,200.566 228.58,200.661C232.494,200.752 240.525,197.122 244.643,191.496C248.057,186.834 249.355,181.396 249.491,176.351C249.645,170.599 243.39,161.326 243.39,161.326L223.48,165.471L209.656,162.926Z" style="fill:white;stroke:black;stroke-width:2.76px;"/>
        <path d="M255.441,158.841C250.511,160.314 229.77,166.604 221.1,167.171C214.995,167.57 206.537,163.856 203.42,162.241C201.979,161.494 205.29,153.741 205.8,153.061C206.066,152.706 203.604,158.141 205.279,159.251C206.815,160.269 209.079,161.367 209.71,161.561C212.855,162.524 218.265,163.241 223.48,163.261C230.847,163.289 244.986,159.067 250.681,158.331C252.263,158.126 256.97,158.384 255.441,158.841Z"/>
    </g>
    <g>
        <path d="M142.782,149.617C143.059,150.862 170.383,142.008 177.646,141.316C180.849,141.011 184.287,145.259 186.362,145.466C187.932,145.623 191.148,143.738 190.097,142.561C188.368,140.624 181.454,133.03 175.986,133.845C168.1,135.021 142.506,148.372 142.782,149.617Z"/>
        <ellipse cx="169.205" cy="178.453" rx="21.271" ry="24.124" style="fill:white;"/>
        <clipPath id="_clip1">
            <ellipse cx="169.205" cy="178.453" rx="21.271" ry="24.124"/>
        </clipPath>
        <g clip-path="url(#_clip1)">
            <g transform="matrix(1,0,0,1,4.98054,5.81063)">
                <ellipse cx="168.167" cy="176.378" rx="3.632" ry="5.447" style="stroke:black;stroke-width:2.76px;"/>
            </g>
        </g>
        <ellipse cx="169.205" cy="178.453" rx="21.271" ry="24.124" style="fill:none;stroke:black;stroke-width:2.76px;"/>
    </g>
    <g transform="matrix(1.44471,0,0,1.29647,-24.2868,-47.9682)">
        <ellipse cx="168.167" cy="176.378" rx="3.632" ry="5.447" style="stroke:black;stroke-width:2.01px;"/>
    </g>
</svg>
