<?xml version="1.0" encoding="UTF-8" standalone="no"?>
<!DOCTYPE svg PUBLIC "-//W3C//DTD SVG 1.1//EN" "http://www.w3.org/Graphics/SVG/1.1/DTD/svg11.dtd">
<svg width="100%" height="100%" viewBox="0 0 400 400" version="1.1" xmlns="http://www.w3.org/2000/svg" xmlns:xlink="http://www.w3.org/1999/xlink" xml:space="preserve" xmlns:serif="http://www.serif.com/" style="fill-rule:evenodd;clip-rule:evenodd;stroke-linecap:round;stroke-linejoin:round;stroke-miterlimit:1.5;">
    <g>
        <g id="blond">
            <path d="M151.461,36.595C136.468,36.849 104.701,30.496 85.896,40.152C67.09,49.809 48.539,77.255 38.628,94.536C30.205,109.222 30.222,127.338 26.429,143.837C21.601,164.845 10.798,194.423 9.657,220.584C8.471,247.776 18.467,282.507 19.314,306.989C20.013,327.195 16.857,353.24 14.74,367.471C13.454,376.109 -1.875,394.455 6.607,392.376C15.248,390.258 55.895,375.804 66.582,354.765C68.918,350.167 75.435,342.464 71.492,338.32C66.545,333.121 44.206,324.63 40.639,311.577C38.112,302.329 34.425,292.869 36.283,283.464C38.487,272.311 46.954,263.255 48.974,252.735C50.547,244.545 55.654,221.388 54.355,216.52C53.726,214.163 50.844,212.331 48.407,212.261C45.693,212.183 41.741,215.98 38.073,216.053C34.321,216.127 26.75,216.829 25.899,212.708C24.916,207.947 30.896,193.774 32.176,187.49C33.012,183.385 33.523,179.19 33.58,175.001C33.64,170.516 31.724,165.328 32.538,160.577C33.413,155.47 36.786,148.159 38.831,144.362C40.234,141.756 42.856,138.811 44.806,137.794C46.502,136.909 49.41,136.704 50.528,138.257C52.141,140.498 52.448,147.411 54.483,151.242C56.51,155.059 59.946,160.366 60.864,156.142C62.92,146.687 58.578,109.92 62.568,96.211C64.916,88.144 83,76.804 86.676,78.987C90.351,81.17 82.14,125.704 91.261,128.592C106.932,133.554 154.701,109.108 180.7,108.76C202.113,108.472 249.329,118.93 244.865,105.517C239.812,90.335 253.431,63.346 260.862,67.658C266.118,70.709 273.757,81.808 275.562,92.734C277.489,104.396 280.42,122.771 283.723,131.306C288.476,143.588 303.308,162.082 313.62,170.272C327.239,181.089 344.608,204.992 351.942,226.645C358.206,245.137 359.082,287.729 352.42,302.421C345.865,316.876 318.216,328.502 313.297,335.782C310.304,340.211 320.452,340.575 319.187,346.633C316.645,358.801 299.195,381.194 308.005,382.211C316.815,383.227 358.746,366.201 372.046,352.732C384.622,339.995 386.146,319.22 387.802,301.398C389.581,282.253 383.227,242.44 382.719,237.865C382.211,233.291 368.728,197.719 356.798,180.432C344.346,162.389 318.811,150.458 308.005,129.606C297.162,108.683 298.263,70.987 291.741,54.892C287.78,45.119 278.853,36.43 268.869,33.037C255.909,28.632 229.479,27.531 213.977,28.463C200.85,29.252 186.277,37.272 175.858,38.628C167.766,39.68 159.62,36.456 151.461,36.595Z" style="fill:rgb(255,251,42);stroke:rgb(16,15,0);stroke-width:3.2px;"/>
            <g id="wave">
                <path d="M26.688,217.916C25.577,220.37 23.701,228.068 23.865,231.907C24.234,240.533 36.749,246.347 37.873,253.696C38.997,261.046 33.031,268.569 30.61,276.005" style="fill:none;stroke:rgb(255,236,26);stroke-width:3.2px;"/>
            </g>
        </g>
        <g>
            <g transform="matrix(1,0,0,1,-58.1196,14.8221)">
                <path d="M179.57,105.648C174.94,91.198 177.895,62.863 185.308,57.197" style="fill:none;stroke:rgb(255,236,26);stroke-width:3.2px;"/>
            </g>
            <g transform="matrix(1,0,0,1,-73.3667,18.4346)">
                <path d="M179.57,105.648C174.94,91.198 177.63,61.27 185.042,55.604" style="fill:none;stroke:rgb(255,236,26);stroke-width:3.2px;"/>
            </g>
            <g transform="matrix(1,0,0,1,30.3879,1.06251)">
                <path d="M179.57,105.648C174.94,91.198 177.895,71.363 185.308,65.698" style="fill:none;stroke:rgb(255,236,26);stroke-width:3.2px;"/>
            </g>
            <g transform="matrix(1,0,0,1,-31.2379,0.425006)">
                <path d="M179.57,105.648C174.94,91.198 177.895,71.363 185.308,65.698" style="fill:none;stroke:rgb(255,236,26);stroke-width:3.2px;"/>
            </g>
            <g transform="matrix(1,0,0,1,-22.9503,0)">
                <path d="M179.57,105.648C174.94,91.198 177.895,71.363 185.308,65.698" style="fill:none;stroke:rgb(255,236,26);stroke-width:3.2px;"/>
            </g>
            <path d="M179.57,105.648C174.94,91.198 177.895,71.363 185.308,65.698" style="fill:none;stroke:rgb(255,236,26);stroke-width:3.2px;"/>
        </g>
        <path d="M350.713,349.157C350.713,349.157 368.266,318.288 369.909,307.134C371.201,298.363 360.571,291.096 360.571,282.231C360.571,270.298 369.39,245.309 369.909,235.538C370.147,231.058 365.759,227.583 363.684,223.606" style="fill:none;stroke:rgb(255,236,26);stroke-width:3.2px;"/>
        <path d="M31.128,365.24C36.144,359.014 44.099,354.259 46.174,346.563C48.249,338.867 40.951,331.098 42.383,322.004" style="fill:none;stroke:rgb(255,236,26);stroke-width:3.2px;"/>
    </g>
</svg>
