<?xml version="1.0" encoding="UTF-8" standalone="no"?>
<!DOCTYPE svg PUBLIC "-//W3C//DTD SVG 1.1//EN" "http://www.w3.org/Graphics/SVG/1.1/DTD/svg11.dtd">
<svg width="100%" height="100%" viewBox="0 0 400 400" version="1.1" xmlns="http://www.w3.org/2000/svg" xmlns:xlink="http://www.w3.org/1999/xlink" xml:space="preserve" xmlns:serif="http://www.serif.com/" style="fill-rule:evenodd;clip-rule:evenodd;stroke-linecap:round;stroke-linejoin:round;stroke-miterlimit:1.5;">
    <g id="corona">
        <path d="M59.9,21.757L54.695,119.993C127.349,131.035 204.645,123.046 285.973,98.524L265.155,12.974L250.517,42.25L212.133,13.95L181.557,42.575L148.703,18.504L116.174,46.478L59.9,21.757Z" style="fill:rgb(253,210,0);stroke:black;stroke-width:3.2px;"/>
        <path d="M264.09,92.162L258.261,81.337L269.503,88.831L279.079,80.92L272.209,92.162L278.038,100.906L267.629,94.868L258.261,101.114L264.09,92.162Z" style="fill:rgb(255,255,0);"/>
        <path d="M66.941,38.659C64.963,40.047 62.153,98.789 65.484,110.898C67.38,117.791 84.949,112.703 86.927,111.315C88.904,109.927 78.497,106.739 77.35,102.571C74.019,90.462 68.919,37.271 66.941,38.659Z" style="fill:rgb(251,255,88);"/>
        <g id="diamonds">
            <g id="diamond" transform="matrix(1,0,0,1,128.449,-15.6137)">
                <path d="M106.754,85.931L90.308,84.265L107.392,107.64L106.754,85.931Z" style="fill:rgb(139,0,0);"/>
                <path d="M106.754,85.931L107.392,107.64L122.655,85.47L106.754,85.931Z" style="fill:rgb(246,93,93);"/>
                <path d="M107.795,63.239L106.754,85.931L90.308,84.265L107.795,63.239Z" style="fill:rgb(184,31,31);"/>
                <path d="M122.655,85.47L106.754,85.931L107.795,63.239L122.655,85.47Z" style="fill:rgb(255,43,43);"/>
            </g>
            <g id="diamond1" serif:id="diamond">
                <path d="M106.754,85.931L90.308,84.265L107.392,107.64L106.754,85.931Z" style="fill:rgb(139,0,0);"/>
                <path d="M106.754,85.931L107.392,107.64L122.655,85.47L106.754,85.931Z" style="fill:rgb(246,93,93);"/>
                <path d="M107.795,63.239L106.754,85.931L90.308,84.265L107.795,63.239Z" style="fill:rgb(184,31,31);"/>
                <path d="M122.655,85.47L106.754,85.931L107.795,63.239L122.655,85.47Z" style="fill:rgb(255,43,43);"/>
            </g>
            <g id="diamond2" serif:id="diamond" transform="matrix(1,0,0,1,63.912,-2.91456)">
                <path d="M106.754,85.931L90.308,84.265L107.392,107.64L106.754,85.931Z" style="fill:rgb(139,0,0);"/>
                <path d="M106.754,85.931L107.392,107.64L122.655,85.47L106.754,85.931Z" style="fill:rgb(246,93,93);"/>
                <path d="M107.795,63.239L106.754,85.931L90.308,84.265L107.795,63.239Z" style="fill:rgb(184,31,31);"/>
                <path d="M122.655,85.47L106.754,85.931L107.795,63.239L122.655,85.47Z" style="fill:rgb(255,43,43);"/>
            </g>
        </g>
        <g transform="matrix(1,0,0,1,-92.6412,-16.0301)">
            <path d="M264.09,92.162L258.261,81.337L269.503,88.831L279.079,80.92L272.209,92.162L278.038,100.906L267.629,94.868L258.261,101.114L264.09,92.162Z" style="fill:rgb(239,239,212);"/>
        </g>
        <g id="saphires">
            <g transform="matrix(0.179687,0,0,0.250936,25.556,-29.4572)">
                <ellipse cx="192.942" cy="207.332" rx="41.637" ry="43.426" style="fill:url(#_Radial1);stroke:black;stroke-width:6.67px;"/>
            </g>
            <g transform="matrix(0.179687,0,0,0.250936,112.407,-36.9632)">
                <ellipse cx="192.942" cy="207.332" rx="41.637" ry="43.426" style="fill:url(#_Radial2);stroke:black;stroke-width:6.67px;"/>
            </g>
            <g transform="matrix(0.179687,0,0,0.250936,178.765,-36.9388)">
                <ellipse cx="192.942" cy="207.332" rx="41.637" ry="43.426" style="fill:url(#_Radial3);stroke:black;stroke-width:6.67px;"/>
            </g>
            <g transform="matrix(0.179687,0,0,0.250936,230.811,-36.9388)">
                <ellipse cx="192.942" cy="207.332" rx="41.637" ry="43.426" style="fill:url(#_Radial4);stroke:black;stroke-width:6.67px;"/>
            </g>
        </g>
    </g>
    <defs>
        <radialGradient id="_Radial1" cx="0" cy="0" r="1" gradientUnits="userSpaceOnUse" gradientTransform="matrix(41.6365,0,0,43.4256,192.942,207.332)"><stop offset="0" style="stop-color:rgb(89,205,250);stop-opacity:1"/><stop offset="1" style="stop-color:rgb(28,45,217);stop-opacity:1"/></radialGradient>
        <radialGradient id="_Radial2" cx="0" cy="0" r="1" gradientUnits="userSpaceOnUse" gradientTransform="matrix(41.6365,0,0,43.4256,192.942,207.332)"><stop offset="0" style="stop-color:rgb(89,205,250);stop-opacity:1"/><stop offset="1" style="stop-color:rgb(28,45,217);stop-opacity:1"/></radialGradient>
        <radialGradient id="_Radial3" cx="0" cy="0" r="1" gradientUnits="userSpaceOnUse" gradientTransform="matrix(41.6365,0,0,43.4256,192.942,207.332)"><stop offset="0" style="stop-color:rgb(89,205,250);stop-opacity:1"/><stop offset="1" style="stop-color:rgb(28,45,217);stop-opacity:1"/></radialGradient>
        <radialGradient id="_Radial4" cx="0" cy="0" r="1" gradientUnits="userSpaceOnUse" gradientTransform="matrix(41.6365,0,0,43.4256,192.942,207.332)"><stop offset="0" style="stop-color:rgb(89,205,250);stop-opacity:1"/><stop offset="1" style="stop-color:rgb(28,45,217);stop-opacity:1"/></radialGradient>
    </defs>
</svg>
