<?xml version="1.0" encoding="UTF-8" standalone="no"?>
<!DOCTYPE svg PUBLIC "-//W3C//DTD SVG 1.1//EN" "http://www.w3.org/Graphics/SVG/1.1/DTD/svg11.dtd">
<svg width="100%" height="100%" viewBox="0 0 400 400" version="1.1" xmlns="http://www.w3.org/2000/svg" xmlns:xlink="http://www.w3.org/1999/xlink" xml:space="preserve" xmlns:serif="http://www.serif.com/" style="fill-rule:evenodd;clip-rule:evenodd;stroke-linecap:round;stroke-linejoin:round;stroke-miterlimit:1.5;">
    <g>
        <path d="M188.181,89.113L243.113,85.914L243.358,111.597L187.916,106.848C186.815,101.265 187.47,92.52 188.181,89.113Z" style="fill:rgb(128,128,128);"/>
        <clipPath id="_clip1">
            <path d="M188.181,89.113L243.113,85.914L243.358,111.597L187.916,106.848C186.815,101.265 187.47,92.52 188.181,89.113Z"/>
        </clipPath>
        <g clip-path="url(#_clip1)">
            <g transform="matrix(0.999138,0.0415141,-0.0415141,0.999138,4.10637,-5.97832)">
                <path d="M243.428,101.684L187.539,100.022L187.764,104.131L243.668,106.573L243.428,101.684Z" style="fill:rgb(179,179,179);"/>
            </g>
            <g transform="matrix(0.998094,0.06171,-0.06171,0.998094,6.4176,-7.02169)">
                <path d="M243.428,101.684L187.539,100.022L187.764,104.131L243.668,106.573L243.428,101.684Z" style="fill:rgb(217,217,217);"/>
            </g>
        </g>
        <path d="M188.181,89.113L243.113,85.914L243.358,111.597L187.916,106.848C186.815,101.265 187.47,92.52 188.181,89.113Z" style="fill:none;stroke:rgb(26,8,0);stroke-width:2.76px;"/>
        <path d="M243.113,85.914C264.426,83.844 285.219,83.111 305.233,84.383C308.506,86.515 308.931,90.071 306.763,94.923C283.622,96.795 262.934,96.564 243.692,95.093L243.113,85.914Z" style="fill:rgb(26,26,26);stroke:rgb(26,8,0);stroke-width:2.76px;"/>
        <path d="M189.48,82.609C185.933,91.72 185.661,102.001 188.46,113.379" style="fill:none;stroke:rgb(26,8,0);stroke-width:2.76px;"/>
    </g>
    <path d="M187.174,107.71C187.174,107.71 188.602,120.698 188.67,123.758C188.689,124.61 188.251,125.543 187.582,126.07C186.834,126.66 185.293,127.362 184.182,127.294C183.071,127.226 181.666,126.41 180.918,125.662C180.186,124.93 179.807,123.781 179.694,122.806C179.581,121.832 179.921,120.54 180.238,119.814C180.495,119.227 181.118,118.879 181.598,118.454C182.187,117.933 183.207,117.389 183.774,116.686C184.341,115.984 184.675,115.091 184.998,114.238C185.565,112.742 187.174,107.71 187.174,107.71Z" style="fill:rgb(0,192,31);"/>
    <clipPath id="_clip2">
        <path d="M187.174,107.71C187.174,107.71 188.602,120.698 188.67,123.758C188.689,124.61 188.251,125.543 187.582,126.07C186.834,126.66 185.293,127.362 184.182,127.294C183.071,127.226 181.666,126.41 180.918,125.662C180.186,124.93 179.807,123.781 179.694,122.806C179.581,121.832 179.921,120.54 180.238,119.814C180.495,119.227 181.118,118.879 181.598,118.454C182.187,117.933 183.207,117.389 183.774,116.686C184.341,115.984 184.675,115.091 184.998,114.238C185.565,112.742 187.174,107.71 187.174,107.71Z"/>
    </clipPath>
    <g clip-path="url(#_clip2)">
        <path d="M181.835,124.753C182.717,125.096 184.503,125.948 185.692,125.567C186.88,125.186 187.723,120.702 188.327,120.757C188.93,120.813 188.605,125.103 188.605,125.103L186.99,126.551L183.703,126.997L180.973,125.715C180.973,125.715 179.655,123.153 179.692,122.707C179.729,122.262 181.357,124.566 181.835,124.753Z" style="fill:rgb(122,255,101);"/>
    </g>
    <path d="M187.174,107.71C187.174,107.71 188.602,120.698 188.67,123.758C188.689,124.61 188.251,125.543 187.582,126.07C186.834,126.66 185.293,127.362 184.182,127.294C183.071,127.226 181.666,126.41 180.918,125.662C180.186,124.93 179.807,123.781 179.694,122.806C179.581,121.832 179.921,120.54 180.238,119.814C180.495,119.227 181.118,118.879 181.598,118.454C182.187,117.933 183.207,117.389 183.774,116.686C184.341,115.984 184.675,115.091 184.998,114.238C185.565,112.742 187.174,107.71 187.174,107.71Z" style="fill:none;stroke:black;stroke-width:0.91px;"/>
</svg>
