<?xml version="1.0" encoding="UTF-8" standalone="no"?>
<!DOCTYPE svg PUBLIC "-//W3C//DTD SVG 1.1//EN" "http://www.w3.org/Graphics/SVG/1.1/DTD/svg11.dtd">
<svg width="100%" height="100%" viewBox="0 0 400 400" version="1.1" xmlns="http://www.w3.org/2000/svg" xmlns:xlink="http://www.w3.org/1999/xlink" xml:space="preserve" xmlns:serif="http://www.serif.com/" style="fill-rule:evenodd;clip-rule:evenodd;stroke-linecap:round;stroke-linejoin:round;stroke-miterlimit:1.5;">
    <g id="horns">
        <path d="M120.444,114.097C120.444,114.097 80.021,85.611 71.521,69.338C63.353,53.703 69.439,16.459 69.439,16.459C69.439,16.459 88.453,54.071 100.666,67.048C112.117,79.214 142.719,94.32 142.719,94.32C140.077,105.414 132.523,111.885 120.444,114.097Z" style="fill:rgb(102,102,102);"/>
        <clipPath id="_clip1">
            <path d="M120.444,114.097C120.444,114.097 80.021,85.611 71.521,69.338C63.353,53.703 69.439,16.459 69.439,16.459C69.439,16.459 88.453,54.071 100.666,67.048C112.117,79.214 142.719,94.32 142.719,94.32C140.077,105.414 132.523,111.885 120.444,114.097Z"/>
        </clipPath>
        <g clip-path="url(#_clip1)">
            <path d="M143.227,94.881C143.227,94.881 91.021,66.455 85.435,53.72L87.309,72.248C80.255,62.002 75.002,53.557 71.279,46.642C70.255,53.477 70.088,62.123 71.84,70.069L121.554,114.506L143.227,94.881Z" style="fill:rgb(158,92,92);"/>
            <path d="M75.454,75.18L72.561,57.471L89.008,77.873L87.342,61.01C87.342,61.01 101.429,73.64 108.161,78.498C114.318,82.941 142.205,98.594 142.205,98.594L135.634,107.985L120.643,115.015L75.454,75.18Z" style="fill:rgb(130,0,0);"/>
        </g>
        <path d="M120.444,114.097C120.444,114.097 80.021,85.611 71.521,69.338C63.353,53.703 69.439,16.459 69.439,16.459C69.439,16.459 88.453,54.071 100.666,67.048C112.117,79.214 142.719,94.32 142.719,94.32C140.077,105.414 132.523,111.885 120.444,114.097Z" style="fill:none;stroke:rgb(26,8,0);stroke-width:3.2px;"/>
        <g transform="matrix(-0.959987,0.280045,0.280045,0.959987,309.885,-41.4276)">
            <path d="M120.444,114.097C120.444,114.097 80.021,85.611 71.521,69.338C66.99,60.665 67.042,34.621 67.042,34.621L77.464,50.939L78.152,39.527C78.152,39.527 93.382,59.309 100.666,67.048C112.117,79.214 142.719,94.32 142.719,94.32C140.077,105.414 132.523,111.885 120.444,114.097Z" style="fill:rgb(102,102,102);"/>
            <clipPath id="_clip2">
                <path d="M120.444,114.097C120.444,114.097 80.021,85.611 71.521,69.338C66.99,60.665 67.042,34.621 67.042,34.621L77.464,50.939L78.152,39.527C78.152,39.527 93.382,59.309 100.666,67.048C112.117,79.214 142.719,94.32 142.719,94.32C140.077,105.414 132.523,111.885 120.444,114.097Z"/>
            </clipPath>
            <g clip-path="url(#_clip2)">
                <path d="M142.694,94.957C142.694,94.957 91.021,66.455 85.435,53.72L87.309,72.248C80.255,62.002 75.002,53.557 71.279,46.642C70.255,53.477 70.36,60.763 72.112,68.709L89.807,88.903L120.346,114.348L142.694,94.957Z" style="fill:rgb(158,92,92);"/>
                <path d="M74.279,75.523L72.561,57.471L89.008,77.873L87.342,61.01C87.342,61.01 101.429,73.64 108.161,78.498C114.318,82.941 127.73,90.156 127.73,90.156L141.797,97.098L134.772,108.159L120.154,114.58L74.279,75.523Z" style="fill:rgb(130,0,0);"/>
            </g>
            <path d="M120.444,114.097C120.444,114.097 80.021,85.611 71.521,69.338C66.99,60.665 67.042,34.621 67.042,34.621L77.464,50.939L78.152,39.527C78.152,39.527 93.382,59.309 100.666,67.048C112.117,79.214 142.719,94.32 142.719,94.32C140.077,105.414 132.523,111.885 120.444,114.097Z" style="fill:none;stroke:rgb(26,8,0);stroke-width:3.2px;"/>
        </g>
    </g>
</svg>
