<?xml version="1.0" encoding="UTF-8" standalone="no"?>
<!DOCTYPE svg PUBLIC "-//W3C//DTD SVG 1.1//EN" "http://www.w3.org/Graphics/SVG/1.1/DTD/svg11.dtd">
<svg width="100%" height="100%" viewBox="0 0 400 400" version="1.1" xmlns="http://www.w3.org/2000/svg" xmlns:xlink="http://www.w3.org/1999/xlink" xml:space="preserve" xmlns:serif="http://www.serif.com/" style="fill-rule:evenodd;clip-rule:evenodd;stroke-linecap:round;stroke-linejoin:round;stroke-miterlimit:1.5;">
    <path d="M185.815,66.425L169.08,94.316L152.877,79.441L155.002,97.504L124.986,95.91L137.736,105.473L129.236,114.77L144.924,113.126L159.451,125.163L161.526,112.296L173.978,121.012L177.298,109.806L197.635,113.956L187.674,103.995L212.162,84.903L183.524,94.034L185.815,66.425Z" style="fill:rgb(115,95,95);stroke:rgb(26,8,0);stroke-width:2.33px;"/>
    <path d="M134.411,109.109C134.411,109.109 139.916,105.413 142.344,105.175C144.697,104.943 146.766,108.504 148.981,107.677C151.556,106.716 154.639,100.641 157.794,99.408C160.947,98.176 164.939,100.641 167.913,100.279C170.66,99.943 173.552,97.377 175.638,97.232C177.386,97.11 178.683,99.215 180.425,99.408C182.22,99.608 184.469,98.284 186.409,98.429C188.349,98.574 192.067,100.279 192.067,100.279L188.041,104.304L197.724,114.205L177.161,109.962L174.332,120.951L161.493,112.682L159.535,125.194L144.958,113.165L129.506,114.423L134.411,109.109Z" style="fill:rgb(243,101,197);"/>
    <clipPath id="_clip1">
        <path d="M134.411,109.109C134.411,109.109 139.916,105.413 142.344,105.175C144.697,104.943 146.766,108.504 148.981,107.677C151.556,106.716 154.639,100.641 157.794,99.408C160.947,98.176 164.939,100.641 167.913,100.279C170.66,99.943 173.552,97.377 175.638,97.232C177.386,97.11 178.683,99.215 180.425,99.408C182.22,99.608 184.469,98.284 186.409,98.429C188.349,98.574 192.067,100.279 192.067,100.279L188.041,104.304L197.724,114.205L177.161,109.962L174.332,120.951L161.493,112.682L159.535,125.194L144.958,113.165L129.506,114.423L134.411,109.109Z"/>
    </clipPath>
    <g clip-path="url(#_clip1)">
        <path d="M154.204,109.853C155.799,108.257 156.561,106.263 157.903,105.827C158.654,105.584 159.687,105.885 160.628,106.322C160.939,106.467 161.97,105.786 162.971,105.112C163.956,104.449 164.913,103.792 165.127,103.934" style="fill:none;stroke:rgb(26,8,0);stroke-width:1.02px;"/>
        <path d="M157.794,113.879C156.525,113.48 154.748,115.982 153.877,115.184C153.007,114.386 152.934,112.791 152.463,111.594" style="fill:none;stroke:rgb(26,8,0);stroke-width:1.02px;"/>
        <path d="M138.971,111.594C139.66,110.651 140.168,109.055 141.039,108.765C141.909,108.475 143.142,109.49 144.194,109.853" style="fill:none;stroke:rgb(26,8,0);stroke-width:1.02px;"/>
        <path d="M185.103,110.615C184.704,109.237 184.505,107.206 183.906,106.48C183.397,105.862 182.311,106.335 181.513,106.263" style="fill:none;stroke:rgb(26,8,0);stroke-width:1.02px;"/>
        <path d="M178.902,104.413C177.777,103.615 176.508,101.765 175.529,102.019C174.55,102.273 173.86,104.631 173.026,105.936" style="fill:none;stroke:rgb(26,8,0);stroke-width:1.02px;"/>
        <path d="M167.369,112.356C167.369,110.905 166.117,109.871 166.498,108.874C166.676,108.409 168.428,108.756 169.126,108.286C169.742,107.87 169.296,106.626 169.653,106.371" style="fill:none;stroke:rgb(26,8,0);stroke-width:1.02px;"/>
    </g>
    <path d="M134.411,109.109C134.411,109.109 139.916,105.413 142.344,105.175C144.697,104.943 146.766,108.504 148.981,107.677C151.556,106.716 154.639,100.641 157.794,99.408C160.947,98.176 164.939,100.641 167.913,100.279C170.66,99.943 173.552,97.377 175.638,97.232C177.386,97.11 178.683,99.215 180.425,99.408C182.22,99.608 184.469,98.284 186.409,98.429C188.349,98.574 192.067,100.279 192.067,100.279L188.041,104.304L197.724,114.205L177.161,109.962L174.332,120.951L161.493,112.682L159.535,125.194L144.958,113.165L129.506,114.423L134.411,109.109Z" style="fill:none;stroke:rgb(26,8,0);stroke-width:2.33px;"/>
</svg>
