<?xml version="1.0" encoding="UTF-8" standalone="no"?>
<!DOCTYPE svg PUBLIC "-//W3C//DTD SVG 1.1//EN" "http://www.w3.org/Graphics/SVG/1.1/DTD/svg11.dtd">
<svg width="100%" height="100%" viewBox="0 0 400 400" version="1.1" xmlns="http://www.w3.org/2000/svg" xmlns:xlink="http://www.w3.org/1999/xlink" xml:space="preserve" xmlns:serif="http://www.serif.com/" style="fill-rule:evenodd;clip-rule:evenodd;stroke-linecap:round;stroke-linejoin:round;stroke-miterlimit:1.5;">
    <g id="russet">
        <g id="left">
            <g transform="matrix(1,0,0,1,-23.9066,-79.3567)">
                <path d="M144.958,125.487C164.437,136.555 170.248,184.257 166.54,193.887C162.833,203.516 135.938,182.376 122.712,183.261C109.761,184.128 87.184,199.199 87.184,199.199L71.216,214.446L78.536,198.535L56.968,199.199L77.223,180.605L56.968,173.632L84.859,159.355L67.926,154.706L88.844,143.085L47.339,139.433C47.339,139.433 125.478,114.419 144.958,125.487Z" style="fill:rgb(255,151,0);stroke:rgb(26,8,0);stroke-width:1.89px;"/>
            </g>
            <path d="M54.63,119.178L62.036,107.469" style="fill:none;stroke:rgb(26,8,0);stroke-width:1.89px;"/>
            <path d="M60.953,79.998L70.802,81.969" style="fill:none;stroke:rgb(26,8,0);stroke-width:1.89px;"/>
            <path d="M64.937,63.728L83.286,65.234" style="fill:none;stroke:rgb(26,8,0);stroke-width:1.89px;"/>
        </g>
        <path d="M134.507,103.233C135.238,103.952 134.445,106.705 133.574,106.164C131.287,104.743 126.284,96.288 120.783,94.706C114.299,92.84 95.113,95.594 94.669,94.972C94.225,94.35 111.479,89.598 118.118,90.975C124.758,92.352 131.931,100.701 134.507,103.233Z" style="fill:rgb(255,182,63);"/>
        <path d="M71.816,72.476C71.802,72.974 76.873,79.463 80.343,78.787C84.28,78.019 89.332,69.003 95.436,67.872C101.647,66.721 113.812,71.823 117.607,71.88C118.845,71.898 119.346,68.691 118.204,68.213C114.878,66.82 103.949,62.258 97.653,63.523C91.357,64.788 84.735,74.31 80.428,75.802C77.521,76.81 71.83,71.979 71.816,72.476Z" style="fill:rgb(255,182,63);"/>
        <g id="right">
            <g transform="matrix(1,0,0,1,2.98833,1.32815)">
                <path d="M192.771,107.225C187.348,97.485 160.674,47.293 178.826,36.169C196.977,25.046 301.679,40.486 301.679,40.486L260.507,46.794L301.015,57.752L270.8,61.072L309.316,78.006L275.448,85.311L299.687,96.932L272.128,98.26L293.71,113.534C293.71,113.534 259.898,107.114 243.905,104.569C232.702,102.786 218.172,94.442 211.365,94.608C204.558,94.774 196.415,113.769 192.771,107.225Z" style="fill:rgb(255,151,0);stroke:rgb(26,8,0);stroke-width:1.89px;"/>
            </g>
            <path d="M275.116,99.588L264.257,91.328" style="fill:none;stroke:rgb(26,8,0);stroke-width:1.89px;"/>
            <path d="M273.788,62.4L257.049,64.535" style="fill:none;stroke:rgb(26,8,0);stroke-width:1.89px;"/>
            <g transform="matrix(1,0,0,1,0.408006,0.408006)">
                <path d="M264.393,47.535L241.817,52.159" style="fill:none;stroke:rgb(26,8,0);stroke-width:1.89px;"/>
            </g>
        </g>
        <path d="M201.469,84.375C203.412,82.043 212.295,75.437 217.125,73.382C221.232,71.636 226.507,71.745 230.448,72.05C234.037,72.328 237.471,74.271 240.774,75.214C243.92,76.113 247.464,77.407 250.267,77.713C252.706,77.978 258.456,76.63 257.595,77.046C256.735,77.463 249.399,80.266 245.104,80.211C240.802,80.155 236.139,76.908 231.781,76.713C227.44,76.52 222.984,77.414 218.957,79.045C214.571,80.822 208.381,86.484 205.466,87.372C203.873,87.858 200.403,85.654 201.469,84.375Z" style="fill:rgb(255,182,63);"/>
        <g transform="matrix(1,0,0,1,20.3181,6.75257)">
            <path d="M189.311,49.233C190.921,46.485 196.029,38.463 200.137,37.575C204.245,36.687 209.38,43.543 213.96,43.904C218.54,44.265 227.534,39.324 227.617,39.74C227.7,40.157 218.707,45.819 214.46,46.402C210.258,46.979 206.133,41.961 202.135,43.238C198.138,44.514 192.615,53.064 190.477,54.063C188.977,54.765 188.474,50.662 189.311,49.233Z" style="fill:rgb(255,182,63);"/>
        </g>
    </g>
</svg>
