<?xml version="1.0" encoding="UTF-8" standalone="no"?>
<!DOCTYPE svg PUBLIC "-//W3C//DTD SVG 1.1//EN" "http://www.w3.org/Graphics/SVG/1.1/DTD/svg11.dtd">
<svg width="100%" height="100%" viewBox="0 0 400 400" version="1.1" xmlns="http://www.w3.org/2000/svg" xmlns:xlink="http://www.w3.org/1999/xlink" xml:space="preserve" xmlns:serif="http://www.serif.com/" style="fill-rule:evenodd;clip-rule:evenodd;stroke-linecap:round;stroke-linejoin:round;stroke-miterlimit:1.5;">
    <path id="angel" d="M72.896,47.427C75.027,70.285 137.913,77.198 169.785,75.927C201.657,74.656 265.541,61.122 264.128,39.803C262.688,18.073 205.13,13.146 173.912,14.39C142.04,15.661 71.203,29.267 72.896,47.427ZM170.667,23.21C148.475,26.376 104.588,33.608 91.752,41.838C89.646,43.188 88.376,44.564 88.174,45.954C86.786,55.498 141.317,60.347 169.209,59.344C197.175,58.338 248.854,48.831 249.308,38.772C249.814,27.527 198.24,19.276 170.667,23.21Z" style="fill:rgb(255,236,26);"/>
    <clipPath id="_clip1">
        <path id="angel1" serif:id="angel" d="M72.896,47.427C75.027,70.285 137.913,77.198 169.785,75.927C201.657,74.656 265.541,61.122 264.128,39.803C262.688,18.073 205.13,13.146 173.912,14.39C142.04,15.661 71.203,29.267 72.896,47.427ZM170.667,23.21C148.475,26.376 104.588,33.608 91.752,41.838C89.646,43.188 88.376,44.564 88.174,45.954C86.786,55.498 141.317,60.347 169.209,59.344C197.175,58.338 248.854,48.831 249.308,38.772C249.814,27.527 198.24,19.276 170.667,23.21Z"/>
    </clipPath>
    <g clip-path="url(#_clip1)">
        <path d="M78.512,55.956C77.861,55.45 136.606,70.93 167.448,69.998C181.384,69.576 204.516,67.441 223.874,61.774C244.943,55.607 261.718,45.845 261.869,44.787C263.296,50.398 226.688,70.238 167.188,74.942C153.82,75.999 126.564,72.874 108.904,69.335C103.031,68.158 89.413,64.416 78.512,55.956Z" style="fill:rgb(255,252,164);"/>
        <path d="M90.661,41.206C91.86,39.857 125.748,25.394 161.589,20.501C178.317,18.217 196.318,19.79 210.407,20.554C221.844,21.175 244.435,31.305 245.369,32.705C245.369,32.705 209.45,22.909 191.255,22.22C173.059,21.53 152.96,25.404 136.195,28.568C120.716,31.49 90.661,41.206 90.661,41.206Z" style="fill:rgb(177,172,102);"/>
    </g>
    <path id="angel2" serif:id="angel" d="M72.896,47.427C75.027,70.285 137.913,77.198 169.785,75.927C201.657,74.656 265.541,61.122 264.128,39.803C262.688,18.073 205.13,13.146 173.912,14.39C142.04,15.661 71.203,29.267 72.896,47.427ZM170.667,23.21C148.475,26.376 104.588,33.608 91.752,41.838C89.646,43.188 88.376,44.564 88.174,45.954C86.786,55.498 141.317,60.347 169.209,59.344C197.175,58.338 248.854,48.831 249.308,38.772C249.814,27.527 198.24,19.276 170.667,23.21Z" style="fill:none;stroke:rgb(26,8,0);stroke-width:1.89px;"/>
</svg>
