<?xml version="1.0" encoding="UTF-8" standalone="no"?>
<!DOCTYPE svg PUBLIC "-//W3C//DTD SVG 1.1//EN" "http://www.w3.org/Graphics/SVG/1.1/DTD/svg11.dtd">
<svg width="100%" height="100%" viewBox="0 0 400 400" version="1.1" xmlns="http://www.w3.org/2000/svg" xmlns:xlink="http://www.w3.org/1999/xlink" xml:space="preserve" xmlns:serif="http://www.serif.com/" style="fill-rule:evenodd;clip-rule:evenodd;stroke-linecap:round;stroke-linejoin:round;stroke-miterlimit:1.5;">
    <g id="mouth-O" serif:id="mouth O">
        <path d="M216.309,270.533C207.342,271.851 195.92,288.888 196.44,296.764C196.96,304.64 210.465,319.109 219.432,317.79C228.399,316.472 250.764,296.729 250.243,288.853C249.723,280.977 225.277,269.214 216.309,270.533Z" style="fill:rgb(38,38,38);stroke:black;stroke-width:4.1px;"/>
        <path d="M202.361,306.548C202.569,303.287 214.193,297.805 219.64,298.013C225.088,298.221 235.254,304.536 235.046,307.798C234.838,311.059 223.839,317.79 218.391,317.582C212.944,317.374 202.153,309.81 202.361,306.548Z" style="fill:rgb(255,0,81);stroke:black;stroke-width:4.1px;"/>
        <path d="M220.057,314.876C220.784,310.123 219.815,307.068 217.767,305.091" style="fill:none;stroke:black;stroke-width:2.5px;"/>
    </g>
</svg>
