<?xml version="1.0" encoding="UTF-8" standalone="no"?>
<!DOCTYPE svg PUBLIC "-//W3C//DTD SVG 1.1//EN" "http://www.w3.org/Graphics/SVG/1.1/DTD/svg11.dtd">
<svg width="100%" height="100%" viewBox="0 0 400 400" version="1.1" xmlns="http://www.w3.org/2000/svg" xmlns:xlink="http://www.w3.org/1999/xlink" xml:space="preserve" xmlns:serif="http://www.serif.com/" style="fill-rule:evenodd;clip-rule:evenodd;stroke-linecap:round;stroke-linejoin:round;stroke-miterlimit:1.5;">
    <path d="M221.526,293.923L194.155,282.362L190.755,294.943L221.526,293.923Z" style="fill:rgb(64,64,64);"/>
    <clipPath id="_clip1">
        <path d="M221.526,293.923L194.155,282.362L190.755,294.943L221.526,293.923Z"/>
    </clipPath>
    <g clip-path="url(#_clip1)">
        <path d="M201.299,292.895L201.308,290.495L208.262,290.98L208.349,292.808" style="fill:white;stroke:black;stroke-width:1.46px;"/>
        <path d="M201.823,287.841L201.91,290.887L207.916,291.148L207.916,290.191" style="fill:white;stroke:black;stroke-width:1.46px;"/>
        <path d="M195.208,292.802L195.04,290.871L201.475,291.061L201.562,292.541" style="fill:white;stroke:black;stroke-width:1.46px;"/>
        <path d="M194.903,285.116L195.069,290.617L201.691,290.84L201.853,287.991" style="fill:white;stroke:black;stroke-width:1.46px;"/>
    </g>
    <path d="M221.526,293.923L194.155,282.362L190.755,294.943L221.526,293.923Z" style="fill:none;stroke:black;stroke-width:3.63px;"/>
    <g transform="matrix(1,0,0,1,-9.63587,-1.30025)">
        <path d="M314.297,271.22C311.676,268.423 304.522,252.201 304.734,244.658C304.937,237.456 314.014,231.199 315.572,225.957C316.791,221.856 313.057,212.959 314.085,213.207C315.112,213.455 321.593,222.097 321.735,227.445C321.876,232.793 315.147,239.628 314.935,245.295C314.722,250.962 317.846,255.356 317.74,259.677C317.645,263.528 316.918,274.018 314.297,271.22Z" style="fill:rgb(179,179,179);"/>
        <clipPath id="_clip2">
            <path d="M314.297,271.22C311.676,268.423 304.522,252.201 304.734,244.658C304.937,237.456 314.014,231.199 315.572,225.957C316.791,221.856 313.057,212.959 314.085,213.207C315.112,213.455 321.593,222.097 321.735,227.445C321.876,232.793 315.147,239.628 314.935,245.295C314.722,250.962 317.846,255.356 317.74,259.677C317.645,263.528 316.918,274.018 314.297,271.22Z"/>
        </clipPath>
        <g clip-path="url(#_clip2)">
            <g transform="matrix(1,0,0,1,-0.139266,-1.46229)">
                <path d="M313.071,265.362C312.754,265.634 314.046,258.562 313.071,255.434C312.096,252.306 307.268,249.291 307.223,246.594C307.178,243.896 312.459,239.34 312.799,239.25C313.139,239.159 308.9,243.624 309.263,246.05C309.626,248.475 314.354,250.653 314.975,253.802C315.61,257.021 313.388,265.09 313.071,265.362Z" style="fill:rgb(204,204,204);"/>
            </g>
        </g>
    </g>
    <g transform="matrix(1,0,0,1,-9.77514,-2.76254)">
        <path d="M308.436,272.406L310.612,269.142L314.094,270.665L314.203,273.059L316.923,273.276L317.249,274.909L316.488,277.629L317.249,279.369L318.228,280.675L317.684,281.872L315.944,281.981L315.944,283.613L315.073,284.592L313.768,284.483L312.462,285.027L311.374,283.939L304.628,278.717L308.436,272.406Z" style="fill:rgb(235,83,0);"/>
        <clipPath id="_clip3">
            <path d="M308.436,272.406L310.612,269.142L314.094,270.665L314.203,273.059L316.923,273.276L317.249,274.909L316.488,277.629L317.249,279.369L318.228,280.675L317.684,281.872L315.944,281.981L315.944,283.613L315.073,284.592L313.768,284.483L312.462,285.027L311.374,283.939L304.628,278.717L308.436,272.406Z"/>
        </clipPath>
        <g clip-path="url(#_clip3)">
            <path d="M314.211,280.974C314.007,280.454 313.83,278.504 314.099,277.576C314.357,276.688 315.39,276.128 315.826,275.403C316.23,274.733 316.718,273.231 316.718,273.231L316.662,276.908L315.325,280.696C315.325,280.696 314.351,281.33 314.211,280.974Z" style="fill:rgb(255,162,45);"/>
            <path d="M314.094,270.665C314.094,270.665 313.049,272.432 312.54,273.231C312.058,273.986 311.296,274.651 311.036,275.459C310.776,276.267 311.045,277.465 310.98,278.077C310.941,278.445 310.441,278.876 310.646,279.136C310.85,279.396 312.205,279.637 312.205,279.637L312.595,275.682L314.018,273.453L314.094,270.665Z" style="fill:rgb(255,162,45);"/>
            <path d="M308.436,272.406L310.177,272.297L311.809,272.515L311.156,274.364" style="fill:none;stroke:black;stroke-width:0.96px;"/>
            <path d="M316.488,277.629L315.291,279.043L315.073,280.893" style="fill:none;stroke:black;stroke-width:0.96px;"/>
            <path d="M314.203,273.059L312.571,275.888L312.897,277.846L312.244,279.696" style="fill:none;stroke:black;stroke-width:0.96px;"/>
        </g>
        <path d="M308.436,272.406L310.612,269.142L314.094,270.665L314.203,273.059L316.923,273.276L317.249,274.909L316.488,277.629L317.249,279.369L318.228,280.675L317.684,281.872L315.944,281.981L315.944,283.613L315.073,284.592L313.768,284.483L312.462,285.027L311.374,283.939L304.628,278.717L308.436,272.406Z" style="fill:none;stroke:black;stroke-width:0.96px;"/>
        <path d="M219.231,291.81C223.703,290.172 237.25,288.401 244.997,286.763C251.932,285.297 259.871,283.576 265.716,281.982C270.91,280.565 274.522,278.486 280.638,277.96C281.977,277.844 289.405,276.095 290.685,275.872C297.794,274.636 304.852,272.242 307.951,272.419C309.518,272.509 309.412,275.74 309.279,276.935C309.154,278.062 306.756,278.839 307.154,279.591C307.553,280.344 311.139,280.698 311.67,281.451C312.201,282.203 311.299,283.854 310.342,284.107C306.49,285.125 295.378,286.453 288.56,287.56C282.181,288.596 275.847,289.935 269.435,290.748C262.794,291.589 255.357,291.766 248.716,292.607C242.304,293.419 234.682,295.13 229.591,295.795C225.806,296.288 219.895,297.256 218.169,296.591C216.645,296.005 217.698,292.372 219.231,291.81Z" style="fill:rgb(243,210,247);"/>
        <clipPath id="_clip4">
            <path d="M219.231,291.81C223.703,290.172 237.25,288.401 244.997,286.763C251.932,285.297 259.871,283.576 265.716,281.982C270.91,280.565 274.522,278.486 280.638,277.96C281.977,277.844 289.405,276.095 290.685,275.872C297.794,274.636 304.852,272.242 307.951,272.419C309.518,272.509 309.412,275.74 309.279,276.935C309.154,278.062 306.756,278.839 307.154,279.591C307.553,280.344 311.139,280.698 311.67,281.451C312.201,282.203 311.299,283.854 310.342,284.107C306.49,285.125 295.378,286.453 288.56,287.56C282.181,288.596 275.847,289.935 269.435,290.748C262.794,291.589 255.357,291.766 248.716,292.607C242.304,293.419 234.682,295.13 229.591,295.795C225.806,296.288 219.895,297.256 218.169,296.591C216.645,296.005 217.698,292.372 219.231,291.81Z"/>
        </clipPath>
        <g clip-path="url(#_clip4)">
            <path d="M218.723,294.485C221.647,293.964 231.054,293.828 235.723,293.261C239.439,292.81 243.475,291.674 246.739,291.085C249.585,290.571 252.446,290.142 255.308,289.725C258.572,289.249 263.309,288.501 266.324,288.229C268.672,288.017 271.062,288.426 273.396,288.093C276.252,287.685 281.148,286.416 283.46,285.781C284.775,285.42 286.003,284.794 287.268,284.285C289.24,283.492 292.98,281.452 295.292,281.021C297.221,280.662 299.214,281.474 301.14,281.701C303.045,281.925 305.606,281.95 306.852,282.381C307.671,282.664 309.463,284.087 308.62,284.285C302.84,285.645 283.188,288.977 272.172,290.541C262.333,291.938 251.522,292.694 242.523,293.669C234.406,294.548 222.146,296.253 218.179,296.389C217.519,296.412 218.073,294.601 218.723,294.485Z" style="fill:rgb(196,138,205);"/>
            <path d="M254.492,290.541C257.03,288.909 259.569,287.277 262.108,285.645" style="fill:none;stroke:rgb(196,138,205);stroke-width:0.96px;"/>
            <path d="M273.532,288.637C275.375,287.715 279.063,285.872 281.284,284.421C283.282,283.116 285.667,280.994 286.86,279.933" style="fill:none;stroke:rgb(196,138,205);stroke-width:0.96px;"/>
            <path d="M250.05,291.035C250.261,290.972 254.068,289.268 254.9,288.773C255.864,288.199 256.853,287.04 257.348,286.461" style="fill:none;stroke:rgb(196,138,205);stroke-width:0.96px;"/>
            <path d="M232.48,293.885C233.91,293.039 236.769,291.348 237.899,290.541C238.448,290.15 238.989,289.413 239.259,289.045" style="fill:none;stroke:rgb(196,138,205);stroke-width:0.96px;"/>
        </g>
        <path d="M219.231,291.81C223.703,290.172 237.25,288.401 244.997,286.763C251.932,285.297 259.871,283.576 265.716,281.982C270.91,280.565 274.522,278.486 280.638,277.96C281.977,277.844 289.405,276.095 290.685,275.872C297.794,274.636 304.852,272.242 307.951,272.419C309.518,272.509 309.412,275.74 309.279,276.935C309.154,278.062 306.756,278.839 307.154,279.591C307.553,280.344 311.139,280.698 311.67,281.451C312.201,282.203 311.299,283.854 310.342,284.107C306.49,285.125 295.378,286.453 288.56,287.56C282.181,288.596 275.847,289.935 269.435,290.748C262.794,291.589 255.357,291.766 248.716,292.607C242.304,293.419 234.682,295.13 229.591,295.795C225.806,296.288 219.895,297.256 218.169,296.591C216.645,296.005 217.698,292.372 219.231,291.81Z" style="fill:none;stroke:black;stroke-width:1.46px;"/>
        <g>
            <path d="M248.235,291.901C249.414,290.722 250.593,289.544 251.771,288.365" style="fill:none;stroke:black;stroke-width:0.65px;"/>
            <path d="M221.851,296.253C223.982,295.301 226.112,294.349 228.243,293.397" style="fill:none;stroke:black;stroke-width:0.65px;"/>
            <path d="M223.263,296.611C227.144,294.996 231.026,293.38 234.907,291.765" style="fill:none;stroke:black;stroke-width:0.65px;"/>
            <path d="M253.4,284.951C250.915,286.239 245.946,288.816 243.883,289.861C242.943,290.338 241.666,290.927 241.027,291.221" style="fill:none;stroke:black;stroke-width:0.96px;"/>
            <path d="M257.275,291.808C258.338,291.199 260.464,289.982 261.7,289.181C262.735,288.511 263.717,287.458 264.692,287.005C265.57,286.596 266.889,286.506 267.548,286.461" style="fill:none;stroke:black;stroke-width:0.96px;"/>
            <path d="M298.606,274.153C297.383,275.494 294.938,278.176 293.252,279.661C291.789,280.95 289.591,282.357 288.492,283.061" style="fill:none;stroke:black;stroke-width:0.96px;"/>
            <path d="M290.685,275.872C289.268,276.509 286.432,277.783 284.684,278.709C283.138,279.528 281.619,280.412 280.196,281.429C278.768,282.449 277.721,284.083 276.116,284.829C274.506,285.577 271.862,285.804 270.54,285.917" style="fill:none;stroke:black;stroke-width:0.96px;"/>
        </g>
    </g>
</svg>
