<?xml version="1.0" encoding="UTF-8" standalone="no"?>
<!DOCTYPE svg PUBLIC "-//W3C//DTD SVG 1.1//EN" "http://www.w3.org/Graphics/SVG/1.1/DTD/svg11.dtd">
<svg width="100%" height="100%" viewBox="0 0 400 400" version="1.1" xmlns="http://www.w3.org/2000/svg" xmlns:xlink="http://www.w3.org/1999/xlink" xml:space="preserve" xmlns:serif="http://www.serif.com/" style="fill-rule:evenodd;clip-rule:evenodd;stroke-linecap:round;stroke-linejoin:round;stroke-miterlimit:1.5;">
    <g id="worm">
        <g transform="matrix(-1,0,0,1,413.345,1.66546)">
            <path d="M184.647,225.614C188.061,218.619 194.001,217.397 203.633,224.614" style="fill:none;stroke:black;stroke-width:1.89px;"/>
        </g>
        <g transform="matrix(1,0,0,1,0.832731,4.16366)">
            <path d="M184.647,225.614C188.061,218.619 194.001,217.397 203.633,224.614" style="fill:none;stroke:black;stroke-width:1.89px;"/>
        </g>
        <g transform="matrix(1,0,0,1,11.6582,-0.666185)">
            <g transform="matrix(1,0,0,1,-35.974,3.49747)">
                <ellipse cx="219.822" cy="236.595" rx="6.353" ry="6.861" style="fill:rgb(66,52,52);stroke:black;stroke-width:1.89px;"/>
            </g>
            <path d="M184.276,233.373C181.403,234.52 176.731,242.646 171.975,243.327C167.218,244.008 158.854,240.394 155.739,237.46C152.83,234.721 153.397,228.547 153.283,225.727C153.209,223.902 155.567,222.296 155.057,220.542C154.534,218.746 152.214,215.631 150.145,214.949C148.076,214.266 144.415,214.994 142.641,216.449C140.867,217.905 139.208,221.748 139.503,223.68C139.799,225.613 143.241,226.197 144.415,228.046C146.348,231.093 148.191,238.715 151.1,241.963C153.796,244.973 158.275,246.307 161.868,247.535C165.317,248.714 169.102,250.142 172.657,249.33C176.363,248.483 181.348,244.601 184.106,242.454C186.18,240.84 189.181,237.959 189.209,236.445C189.237,234.932 186.075,232.654 184.276,233.373Z" style="fill:rgb(0,150,43);"/>
            <clipPath id="_clip1">
                <path d="M184.276,233.373C181.403,234.52 176.731,242.646 171.975,243.327C167.218,244.008 158.854,240.394 155.739,237.46C152.83,234.721 153.397,228.547 153.283,225.727C153.209,223.902 155.567,222.296 155.057,220.542C154.534,218.746 152.214,215.631 150.145,214.949C148.076,214.266 144.415,214.994 142.641,216.449C140.867,217.905 139.208,221.748 139.503,223.68C139.799,225.613 143.241,226.197 144.415,228.046C146.348,231.093 148.191,238.715 151.1,241.963C153.796,244.973 158.275,246.307 161.868,247.535C165.317,248.714 169.102,250.142 172.657,249.33C176.363,248.483 181.348,244.601 184.106,242.454C186.18,240.84 189.181,237.959 189.209,236.445C189.237,234.932 186.075,232.654 184.276,233.373Z"/>
            </clipPath>
            <g clip-path="url(#_clip1)">
                <g transform="matrix(1,0,0,1,11.9626,7.07278)">
                    <ellipse cx="132.034" cy="213.19" rx="0.917" ry="1.004"/>
                </g>
                <g transform="matrix(1,0,0,1,15.8919,5.85032)">
                    <ellipse cx="132.034" cy="213.19" rx="0.917" ry="1.004"/>
                </g>
                <path d="M147.969,234.102C148.842,234.423 153.063,240.884 156.002,243.009C158.797,245.029 162.215,246.235 165.607,246.851C169.056,247.477 176.086,246.341 176.697,246.763C177.308,247.186 171.896,249.497 169.275,249.383C165.928,249.237 159.699,247.273 156.614,245.89C154.311,244.859 152.204,243.052 150.763,241.088C149.323,239.123 147.096,233.782 147.969,234.102Z" style="fill:rgb(83,96,79);fill-opacity:0.41;"/>
            </g>
            <path d="M184.276,233.373C181.403,234.52 176.731,242.646 171.975,243.327C167.218,244.008 158.854,240.394 155.739,237.46C152.83,234.721 153.397,228.547 153.283,225.727C153.209,223.902 155.567,222.296 155.057,220.542C154.534,218.746 152.214,215.631 150.145,214.949C148.076,214.266 144.415,214.994 142.641,216.449C140.867,217.905 139.208,221.748 139.503,223.68C139.799,225.613 143.241,226.197 144.415,228.046C146.348,231.093 148.191,238.715 151.1,241.963C153.796,244.973 158.275,246.307 161.868,247.535C165.317,248.714 169.102,250.142 172.657,249.33C176.363,248.483 181.348,244.601 184.106,242.454C186.18,240.84 189.181,237.959 189.209,236.445C189.237,234.932 186.075,232.654 184.276,233.373Z" style="fill:none;stroke:black;stroke-width:1.4px;"/>
            <path d="M145.175,224.148C146.635,223.925 147.964,223.44 149.192,222.751" style="fill:none;stroke:black;stroke-width:1.02px;"/>
        </g>
        <g transform="matrix(1,0,0,1,-1.33237,-0.666185)">
            <ellipse cx="219.822" cy="236.595" rx="6.353" ry="6.861" style="fill:rgb(66,52,52);stroke:black;stroke-width:1.89px;"/>
            <path d="M213.942,237.612C215.496,240.454 221.292,246.45 225.933,248.004C230.574,249.559 238.185,249.105 241.788,246.938C245.391,244.771 245.755,239.039 247.552,235.003C249.456,230.725 250.931,223.456 253.213,221.271C255.151,219.414 258.737,220.922 261.241,221.89C263.978,222.948 266.97,226.531 269.635,227.619C271.991,228.581 275.675,229.173 277.229,228.418C278.784,227.663 280.26,224.431 278.961,223.089C276.341,220.38 266.504,213.607 261.507,212.163C257.432,210.986 252.231,211.699 248.983,214.428C245.588,217.281 243.182,225.192 241.139,229.278C239.555,232.446 239.047,237.346 236.725,238.944C234.404,240.542 230.159,240.035 227.212,238.864C223.859,237.532 218.818,231.159 216.606,230.95C214.395,230.741 212.794,235.513 213.942,237.612Z" style="fill:rgb(0,150,43);"/>
            <clipPath id="_clip2">
                <path d="M213.942,237.612C215.496,240.454 221.292,246.45 225.933,248.004C230.574,249.559 238.185,249.105 241.788,246.938C245.391,244.771 245.755,239.039 247.552,235.003C249.456,230.725 250.931,223.456 253.213,221.271C255.151,219.414 258.737,220.922 261.241,221.89C263.978,222.948 266.97,226.531 269.635,227.619C271.991,228.581 275.675,229.173 277.229,228.418C278.784,227.663 280.26,224.431 278.961,223.089C276.341,220.38 266.504,213.607 261.507,212.163C257.432,210.986 252.231,211.699 248.983,214.428C245.588,217.281 243.182,225.192 241.139,229.278C239.555,232.446 239.047,237.346 236.725,238.944C234.404,240.542 230.159,240.035 227.212,238.864C223.859,237.532 218.818,231.159 216.606,230.95C214.395,230.741 212.794,235.513 213.942,237.612Z"/>
            </clipPath>
            <g clip-path="url(#_clip2)">
                <path d="M215.448,238.206C215.957,238.279 220.818,243.183 223.481,244.668C225.902,246.017 229.069,246.793 231.427,247.113C233.482,247.392 235.706,247.113 237.627,246.589C239.535,246.068 241.832,244.988 242.953,243.969C243.881,243.126 243.927,241.657 244.35,240.477C244.976,238.73 246.038,235.019 246.708,233.491C247.074,232.654 248.576,230.418 248.367,231.308C247.916,233.229 245.674,242.252 244.001,245.017C242.902,246.832 240.399,247.452 238.325,247.899C235.691,248.466 231.18,249.034 228.196,248.423C225.313,247.832 222.55,245.934 220.425,244.231C218.392,242.602 214.938,238.134 215.448,238.206Z" style="fill:rgb(83,96,79);fill-opacity:0.23;"/>
            </g>
            <path d="M213.942,237.612C215.496,240.454 221.292,246.45 225.933,248.004C230.574,249.559 238.185,249.105 241.788,246.938C245.391,244.771 245.755,239.039 247.552,235.003C249.456,230.725 250.931,223.456 253.213,221.271C255.151,219.414 258.737,220.922 261.241,221.89C263.978,222.948 266.97,226.531 269.635,227.619C271.991,228.581 275.675,229.173 277.229,228.418C278.784,227.663 280.26,224.431 278.961,223.089C276.341,220.38 266.504,213.607 261.507,212.163C257.432,210.986 252.231,211.699 248.983,214.428C245.588,217.281 243.182,225.192 241.139,229.278C239.555,232.446 239.047,237.346 236.725,238.944C234.404,240.542 230.159,240.035 227.212,238.864C223.859,237.532 218.818,231.159 216.606,230.95C214.395,230.741 212.794,235.513 213.942,237.612Z" style="fill:none;stroke:black;stroke-width:1.4px;"/>
        </g>
    </g>
</svg>
