<?xml version="1.0" encoding="UTF-8" standalone="no"?>
<!DOCTYPE svg PUBLIC "-//W3C//DTD SVG 1.1//EN" "http://www.w3.org/Graphics/SVG/1.1/DTD/svg11.dtd">
<svg width="100%" height="100%" viewBox="0 0 400 400" version="1.1" xmlns="http://www.w3.org/2000/svg" xmlns:xlink="http://www.w3.org/1999/xlink" xml:space="preserve" xmlns:serif="http://www.serif.com/" style="fill-rule:evenodd;clip-rule:evenodd;stroke-linecap:round;stroke-linejoin:round;stroke-miterlimit:1.5;">
    <ellipse cx="199.741" cy="231.647" rx="36.316" ry="30.869" style="fill:rgb(255,0,11);"/>
    <clipPath id="_clip1">
        <ellipse cx="199.741" cy="231.647" rx="36.316" ry="30.869"/>
    </clipPath>
    <g clip-path="url(#_clip1)">
        <path d="M163.464,235.024L168.564,247.774L179.189,257.124L197.464,263.074L212.34,260.524L223.39,255.424L232.74,245.436L234.653,238.849C234.653,238.849 236.601,230.384 234.865,231.624C233.13,232.863 227.569,242.815 224.24,246.286C221.656,248.98 218.462,251.367 214.89,252.449C211.029,253.618 205.671,253.717 201.077,253.299C196.012,252.838 189.354,251.741 184.502,249.686C179.815,247.702 175.47,244.338 171.964,240.974C168.529,237.678 164.881,230.49 163.464,229.499C162.047,228.507 163.464,235.024 163.464,235.024Z" style="fill:rgb(223,35,0);"/>
        <path d="M214.345,209.895C211.855,208.18 206.432,206.243 204.052,206.243C202.25,206.243 200.455,208.29 200.068,209.895C199.68,211.5 200.007,214.725 201.728,215.872C204.052,217.421 211.136,219.081 214.013,219.192C215.893,219.264 218.938,218.085 218.994,216.536C219.049,214.986 216.57,211.428 214.345,209.895Z" style="fill:rgb(255,139,139);"/>
    </g>
    <ellipse cx="199.741" cy="231.647" rx="36.316" ry="30.869" style="fill:none;stroke:black;stroke-width:3.63px;"/>
</svg>
