<?xml version="1.0" encoding="UTF-8" standalone="no"?>
<!DOCTYPE svg PUBLIC "-//W3C//DTD SVG 1.1//EN" "http://www.w3.org/Graphics/SVG/1.1/DTD/svg11.dtd">
<svg width="100%" height="100%" viewBox="0 0 400 400" version="1.1" xmlns="http://www.w3.org/2000/svg" xmlns:xlink="http://www.w3.org/1999/xlink" xml:space="preserve" xmlns:serif="http://www.serif.com/" style="fill-rule:evenodd;clip-rule:evenodd;stroke-linecap:round;stroke-linejoin:round;stroke-miterlimit:1.5;">
    <g transform="matrix(0.691549,0,0,0.691549,76.8884,77.6142)">
        <path d="M198.13,197.324C198.13,197.324 199.703,195.075 194.686,190.919C186.978,184.534 180.392,193.465 174.966,190.095C172.407,188.506 167.935,188.218 165.93,190.103C163.926,191.989 165.671,199.12 162.938,201.408C160.206,203.696 151.79,202.248 149.534,203.831C147.603,205.185 148.4,208.772 149.398,210.903C150.395,213.034 154.89,214.496 155.518,216.615C156.145,218.734 153.435,221.171 153.163,223.619C152.869,226.271 152.719,229.736 153.75,232.527C155.026,235.984 158.057,242.727 160.822,244.359C163.587,245.992 168.075,241.095 170.342,242.319C172.609,243.543 172.78,249.1 174.422,251.704C175.933,254.1 178.154,256.719 180.194,257.943C182.069,259.068 184.798,259.848 186.662,259.048C188.527,258.247 189.162,254.336 191.38,253.14C193.987,251.735 202.302,250.616 202.302,250.616L198.13,197.324Z" style="fill:rgb(255,249,209);"/>
        <clipPath id="_clip1">
            <path d="M198.13,197.324C198.13,197.324 199.703,195.075 194.686,190.919C186.978,184.534 180.392,193.465 174.966,190.095C172.407,188.506 167.935,188.218 165.93,190.103C163.926,191.989 165.671,199.12 162.938,201.408C160.206,203.696 151.79,202.248 149.534,203.831C147.603,205.185 148.4,208.772 149.398,210.903C150.395,213.034 154.89,214.496 155.518,216.615C156.145,218.734 153.435,221.171 153.163,223.619C152.869,226.271 152.719,229.736 153.75,232.527C155.026,235.984 158.057,242.727 160.822,244.359C163.587,245.992 168.075,241.095 170.342,242.319C172.609,243.543 172.78,249.1 174.422,251.704C175.933,254.1 178.154,256.719 180.194,257.943C182.069,259.068 184.798,259.848 186.662,259.048C188.527,258.247 189.162,254.336 191.38,253.14C193.987,251.735 202.302,250.616 202.302,250.616L198.13,197.324Z"/>
        </clipPath>
        <g clip-path="url(#_clip1)">
            <path d="M154.631,229.454C155.289,228.978 159.051,237.977 162.111,239.11C165.171,240.244 170.272,235.28 172.992,236.254C175.712,237.229 176.324,242.465 178.432,244.958C180.486,247.388 182.467,250.98 185.64,251.214C189.017,251.464 198.957,246.716 198.957,246.716L201.405,250.388L190.661,252.972L187.261,258.276L180.461,257.732L173.661,249.708L170.941,242.091L163.461,244.947L158.429,242.227C158.429,242.227 153.974,229.93 154.631,229.454Z" style="fill:rgb(255,229,161);"/>
            <path d="M154.455,214.908C157.084,217.356 158.968,221.021 162.343,222.252C165.947,223.567 171.501,222.615 176.079,222.796" style="fill:none;stroke:black;stroke-width:3.36px;"/>
        </g>
        <path d="M198.13,197.324C198.13,197.324 199.703,195.075 194.686,190.919C186.978,184.534 180.392,193.465 174.966,190.095C172.407,188.506 167.935,188.218 165.93,190.103C163.926,191.989 165.671,199.12 162.938,201.408C160.206,203.696 151.79,202.248 149.534,203.831C147.603,205.185 148.4,208.772 149.398,210.903C150.395,213.034 154.89,214.496 155.518,216.615C156.145,218.734 153.435,221.171 153.163,223.619C152.869,226.271 152.719,229.736 153.75,232.527C155.026,235.984 158.057,242.727 160.822,244.359C163.587,245.992 168.075,241.095 170.342,242.319C172.609,243.543 172.78,249.1 174.422,251.704C175.933,254.1 178.154,256.719 180.194,257.943C182.069,259.068 184.798,259.848 186.662,259.048C188.527,258.247 189.162,254.336 191.38,253.14C193.987,251.735 202.302,250.616 202.302,250.616L198.13,197.324Z" style="fill:none;stroke:black;stroke-width:3.36px;"/>
        <path d="M198.13,197.324L293.59,218.906L201.865,250.864C188.924,232.486 186.722,214.595 198.13,197.324Z" style="fill:rgb(248,134,0);"/>
        <clipPath id="_clip2">
            <path d="M198.13,197.324L293.59,218.906L201.865,250.864C188.924,232.486 186.722,214.595 198.13,197.324Z"/>
        </clipPath>
        <g clip-path="url(#_clip2)">
            <g>
                <g transform="matrix(-0.0754418,-0.99715,0.99715,-0.0754418,13.4758,460.559)">
                    <path d="M211.033,209.928C210.845,209.412 210.903,214.526 210.996,216.822C211.106,219.518 211.342,223.019 211.693,226.101C212.151,230.128 213.532,240.511 213.746,240.984C213.96,241.457 213.149,232.916 212.977,228.937C212.86,226.226 212.257,221.654 212.122,219.92C211.987,218.2 211.22,210.444 211.033,209.928Z" style="fill:rgb(209,76,0);"/>
                </g>
                <g transform="matrix(0.0299088,-0.999553,0.999553,0.0299088,-10.3417,430.772)">
                    <path d="M211.033,209.928C210.845,209.412 210.903,214.526 210.996,216.822C211.106,219.518 211.342,223.019 211.693,226.101C212.151,230.128 213.532,240.511 213.746,240.984C213.96,241.457 213.149,232.916 212.977,228.937C212.86,226.226 212.257,221.654 212.122,219.92C211.987,218.2 211.22,210.444 211.033,209.928Z" style="fill:rgb(209,76,0);"/>
                </g>
                <g transform="matrix(0.126404,-0.991979,0.991979,0.126404,-30.0298,400.168)">
                    <path d="M211.033,209.928C210.845,209.412 210.903,214.526 210.996,216.822C211.106,219.518 211.342,223.019 211.693,226.101C212.151,230.128 213.532,240.511 213.746,240.984C213.96,241.457 213.149,232.916 212.977,228.937C212.86,226.226 212.257,221.654 212.122,219.92C211.987,218.2 211.22,210.444 211.033,209.928Z" style="fill:rgb(209,76,0);"/>
                </g>
                <g transform="matrix(1,0,0,1,15.5282,0.417798)">
                    <path d="M213.331,211.46C213.15,211.438 211.335,214.902 210.996,216.822C210.607,219.031 210.436,222.14 210.996,224.708C211.617,227.551 214.205,233.188 214.721,233.881C215.236,234.575 215.029,232.359 214.091,228.867C213.388,226.247 212.396,223.256 212.261,221.522C212.126,219.801 211.941,218.641 212.08,216.953C212.36,213.565 213.511,211.482 213.331,211.46Z" style="fill:rgb(209,76,0);"/>
                </g>
                <path d="M215.977,206.446C215.634,206.564 211.826,213.779 210.996,216.822C210.305,219.358 210.347,222.161 210.996,224.708C211.896,228.236 215.876,237.297 216.392,237.99C216.908,238.683 215.029,232.359 214.091,228.867C213.388,226.247 213.162,223.117 213.027,221.382C212.892,219.662 212.916,217.806 213.055,216.118C213.334,212.729 216.32,206.329 215.977,206.446Z" style="fill:rgb(209,76,0);"/>
                <g transform="matrix(1,0,0,1,7.59,0)">
                    <path d="M213.749,208.953C213.44,209.094 211.455,214.197 210.996,216.822C210.544,219.412 210.347,222.161 210.996,224.708C211.896,228.236 215.841,236.914 216.392,237.99C216.942,239.066 215.237,234.657 214.3,231.165C213.597,228.545 212.745,223.813 212.609,222.079C212.474,220.358 212.707,217.666 212.846,215.979C213.126,212.59 214.057,208.812 213.749,208.953Z" style="fill:rgb(209,76,0);"/>
                </g>
            </g>
        </g>
        <path d="M198.13,197.324L293.59,218.906L201.865,250.864C188.924,232.486 186.722,214.595 198.13,197.324Z" style="fill:none;stroke:black;stroke-width:3.36px;"/>
    </g>
</svg>
